:SAMPLES-PER-SECOND 30
:FULLY-SPECIFIED
:DEGREES
48
root  -19.9066 38.9033 -1.38171 -102.299 -83.041 98.1148
RightUpLeg  -17.565 -4.20455 -12.8697
RightLeg  67.1816 -0.0337995 -0.765399
RightFoot  4.89451 -0.757805 5.55152
RightToes  0.00048216 0.542163 -0.142577
Spine  24.6786 -1.65266 -1.80046
Spine1  10.2944 -1.46138 -2.57051
HEad  6.05531 3.04495 -2.25322
LeftShoulder1  9.94606 -15.4379 -45.787
LeftArm  -14.9386 -3.48944 -20.8527
LeftForeArm  28.9677 -23.6831 -3.5527
LeftHand  -0.25398 0.0180481 5.50724
RightShoulder  5.25615 9.9961 32.9926
RightArm  -9.07689 14.1845 33.3663
RightForeArm  -0.141246 26.4434 5.69256
RightHand  -1.98089 4.90303 -22.4303
LeftUpLeg  -15.275 19.3917 -14.8337
LeftLeg  23.5856 8.22087 4.25391
LeftFoot  -9.08892 -0.0769654 6.69137
LeftToes  1.06244e-005 4.65855e-005 -8.18506e-006
49
root  -20.8777 39.1165 -1.31691 -101.13 -83.6696 97.0323
RightUpLeg  -22.3077 -4.6268 -11.8885
RightLeg  63.1926 -1.20149 -3.12172
RightFoot  3.67351 -0.536201 4.26209
RightToes  0.00048216 0.542163 -0.142577
Spine  26.4126 -2.00256 -1.14887
Spine1  10.1027 -1.79518 -2.27023
HEad  5.01798 2.75217 -2.27333
LeftShoulder1  10.1491 -15.9323 -45.522
LeftArm  -16.7287 -7.79248 -20.402
LeftForeArm  31.184 -26.058 -3.93111
LeftHand  -0.25398 0.0180481 5.50724
RightShoulder  5.34615 10.3131 32.7502
RightArm  -7.8576 17.1086 34.3419
RightForeArm  0.172348 26.6826 5.73165
RightHand  -1.97193 4.87439 -22.3908
LeftUpLeg  -13.2158 19.3216 -13.7784
LeftLeg  22.8886 8.04768 4.05295
LeftFoot  -9.9639 -0.0121177 6.03241
LeftToes  1.06244e-005 4.65855e-005 -8.18506e-006
50
root  -21.87 39.2757 -1.2717 -101.36 -83.9717 97.4526
RightUpLeg  -25.6844 -5.08849 -10.887
RightLeg  55.7971 -3.00278 -5.14916
RightFoot  2.95819 -0.411419 3.4478
RightToes  0.00048216 0.542163 -0.142577
Spine  27.9394 -2.15283 -0.83829
Spine1  9.95528 -1.94863 -2.05665
HEad  4.082 2.32946 -2.09577
LeftShoulder1  10.257 -16.3391 -45.042
LeftArm  -18.1843 -11.797 -20.2707
LeftForeArm  32.8005 -28.4186 -4.36286
LeftHand  -0.25398 0.0180481 5.50724
RightShoulder  5.43655 10.622 32.5428
RightArm  -6.49711 19.6336 35.308
RightForeArm  1.28541 26.7212 5.68229
RightHand  -1.89942 4.70778 -21.9378
LeftUpLeg  -11.3673 19.5981 -13.0565
LeftLeg  22.3696 7.9245 3.91176
LeftFoot  -10.8927 0.0429272 5.88615
LeftToes  1.06244e-005 4.65855e-005 -8.18506e-006
51
root  -22.9143 39.342 -1.25298 -96.9505 -83.9753 93.5062
RightUpLeg  -27.3702 -6.7289 -9.97594
RightLeg  44.8633 -4.56486 -5.19462
RightFoot  1.81008 -0.473409 4.21377
RightToes  0.00048216 0.542163 -0.142577
Spine  28.9264 -2.3633 -0.869704
Spine1  10.0649 -2.24612 -1.74516
HEad  3.04656 1.89912 -1.89273
LeftShoulder1  10.3747 -16.7926 -44.5158
LeftArm  -19.4038 -15.4312 -20.2428
LeftForeArm  34.1889 -30.7484 -4.81631
LeftHand  -0.25398 0.0180481 5.50724
RightShoulder  5.50773 10.8172 32.5147
RightArm  -4.94688 22.0454 36.0483
RightForeArm  2.45288 26.5105 5.57206
RightHand  -1.84662 4.63104 -21.5073
LeftUpLeg  -9.87191 19.2594 -12.7672
LeftLeg  22.2521 7.90944 3.87529
LeftFoot  -12.4792 0.128452 5.51571
LeftToes  1.06244e-005 4.65855e-005 -8.18506e-006
52
root  -24.0338 39.3537 -1.25569 -88.7908 -83.6716 86.2635
RightUpLeg  -28.0399 -10.7991 -8.46256
RightLeg  31.0234 -4.20836 -3.23108
RightFoot  1.71191 -0.64254 5.69733
RightToes  0.00048216 0.542163 -0.142577
Spine  29.3392 -2.62032 -0.992555
Spine1  10.304 -2.66169 -1.18907
HEad  1.82207 1.43905 -1.84867
LeftShoulder1  10.4191 -17.1982 -43.7913
LeftArm  -20.3468 -18.7127 -20.5841
LeftForeArm  35.2259 -32.5818 -5.19134
LeftHand  -0.25398 0.0180481 5.50724
RightShoulder  5.57611 10.9912 32.5244
RightArm  -3.43857 23.9594 36.5493
RightForeArm  3.23231 26.2844 5.47889
RightHand  -1.81835 4.61471 -21.2223
LeftUpLeg  -8.79424 18.3557 -12.8391
LeftLeg  22.2095 7.76391 3.76896
LeftFoot  -14.0924 0.190768 4.41156
LeftToes  1.06244e-005 4.65855e-005 -8.18506e-006
53
root  -25.2152 39.3121 -1.28798 -81.4712 -83.0236 79.87
RightUpLeg  -27.6646 -15.63 -6.79795
RightLeg  16.5643 -4.09361 -0.497345
RightFoot  1.96506 -0.85179 7.42941
RightToes  0.00048216 0.542163 -0.142577
Spine  29.763 -2.73873 -1.1976
Spine1  10.4999 -3.01635 -0.495399
HEad  0.608828 0.812682 -1.85263
LeftShoulder1  10.2916 -17.4449 -42.6797
LeftArm  -20.5997 -21.7205 -21.5352
LeftForeArm  35.3719 -33.3536 -5.37055
LeftHand  -0.25398 0.0180481 5.50724
RightShoulder  5.64047 11.2267 32.3455
RightArm  -2.31753 24.9355 36.9813
RightForeArm  3.64966 26.253 5.44962
RightHand  -1.76626 4.48778 -20.8882
LeftUpLeg  -7.81737 17.6276 -13.1337
LeftLeg  22.4206 7.50161 3.71966
LeftFoot  -15.2731 0.222513 3.75925
LeftToes  1.06244e-005 4.65855e-005 -8.18506e-006
54
root  -26.4445 39.137 -1.3695 -75.7167 -82.0442 74.3765
RightUpLeg  -25.3213 -13.841 -8.85123
RightLeg  4.84906 -11.5093 3.50253
RightFoot  1.00628 -0.990301 9.17075
RightToes  0.00048216 0.542163 -0.142577
Spine  30.6933 -2.67134 -1.6049
Spine1  10.82 -3.27133 0.200621
HEad  -0.388314 -0.063129 -1.7013
LeftShoulder1  10.0635 -17.6578 -41.2119
LeftArm  -20.1497 -24.5232 -23.0557
LeftForeArm  34.8786 -32.9637 -5.30359
LeftHand  -0.25398 0.0180481 5.50724
RightShoulder  5.65374 11.417 31.9433
RightArm  -1.67203 25.2688 37.3785
RightForeArm  3.54684 26.1135 5.42312
RightHand  -1.72134 4.35038 -20.6501
LeftUpLeg  -6.47819 16.8661 -13.4355
LeftLeg  23.6501 7.6462 4.00044
LeftFoot  -17.0324 0.304505 4.05207
LeftToes  1.06244e-005 4.65855e-005 -8.18506e-006
